# xmcd
#
# Track frame offsets: 
#        150
#        17481
#        33700
#        51795
#
# Disc length: 832 seconds
#
# Revision: 0
# Processed by: cddbd v1.5.2PL0 Copyright (c) Steve Scherf et al.
# Submitted via: ExactAudioCopy v0.95b4
#
DISCID=2a033e04
DTITLE=Blue King Brown - Stand Up - Single
DYEAR=2007
DGENRE=Acoustic
TTITLE0=Stand Up (Radio Edit)
TTITLE1=No No No (You Dont Love Me)
TTITLE2=Stand Up (Dub Mix)
TTITLE3=Cooks (Traditional)
EXTD=
EXTT0=
EXTT1=
EXTT2=
EXTT3=
PLAYORDER=
